<?xml version="1.0" encoding="UTF-8" standalone="no"?>
<svg
   version="1.1"
   width="1089"
   height="777"
   id="svg10"
   sodipodi:docname="icon.svg"
   inkscape:version="1.4 (1:1.4+202410161351+e7c3feb100)"
   xmlns:inkscape="http://www.inkscape.org/namespaces/inkscape"
   xmlns:sodipodi="http://sodipodi.sourceforge.net/DTD/sodipodi-0.dtd"
   xmlns="http://www.w3.org/2000/svg"
   xmlns:svg="http://www.w3.org/2000/svg">
  <sodipodi:namedview
     id="namedview10"
     pagecolor="#4cfb4a"
     bordercolor="#000000"
     borderopacity="0.25"
     inkscape:showpageshadow="2"
     inkscape:pageopacity="0.0"
     inkscape:pagecheckerboard="0"
     inkscape:deskcolor="#d1d1d1"
     showgrid="false"
     inkscape:zoom="0.77821539"
     inkscape:cx="553.18875"
     inkscape:cy="442.6795"
     inkscape:window-width="1854"
     inkscape:window-height="1123"
     inkscape:window-x="0"
     inkscape:window-y="0"
     inkscape:window-maximized="1"
     inkscape:current-layer="svg10" />
  <defs
     id="defs1">
    <clipPath
       id="sOsVuOVmbhuw">
      <path
         fill="none"
         stroke="none"
         d=" M 0 0 L 1089 0 L 1089 777 L 0 777 L 0 0 Z"
         id="path1" />
    </clipPath>
  </defs>
  <g
     transform="scale(1,1)"
     clip-path="url(#sOsVuOVmbhuw)"
     id="g10">
    <g
       id="g9">
      <path
         fill="none"
         stroke="rgb(96,96,96)"
         paint-order="fill stroke markers"
         d=" M 651.8293689586927 312.13888888888937 C 651.8293689586927 428.7148053686825 557.3259164797932 523.2182578475818 440.7499999999999 523.2182578475818 C 324.1740835202065 523.2182578475818 229.67063104130708 428.7148053686825 229.67063104130708 312.13888888888937 C 229.67063104130708 195.5629724090962 324.1740835202065 101.05951993019696 440.7499999999999 101.05951993019696 C 557.3259164797932 101.05951993019696 651.8293689586927 195.5629724090962 651.8293689586927 312.13888888888937 Z"
         stroke-opacity="0.6980392156862745"
         stroke-linejoin="round"
         stroke-miterlimit="10"
         stroke-width="2"
         stroke-dasharray="6,4"
         id="path2"
         style="stroke:#ffffff;stroke-opacity:0.69803923" />
      <path
         fill="none"
         stroke="rgb(0,0,0)"
         paint-order="fill stroke markers"
         d=" M 229.69127248170054 315.09075920383054 C 230.49057828270074 372.2411239753467 254.43201254478691 426.62430557555695 296.0424831651393 465.8081264463407 C 337.65295378549166 504.99194731712447 393.3749678389465 525.6263812883736 450.4702861819895 522.9943276058929"
         stroke-opacity="0.6980392156862745"
         stroke-linecap="round"
         stroke-linejoin="round"
         stroke-miterlimit="10"
         stroke-width="3"
         id="path3"
         style="stroke:#ffffff;stroke-opacity:0.69803923" />
      <path
         fill="#000000"
         stroke="none"
         paint-order="stroke fill markers"
         d="m 314.25,475.63889 c 0,3.86599 -3.13401,7 -7,7 -3.86599,0 -7,-3.13401 -7,-7 0,-3.86599 3.13401,-7 7,-7 3.86599,0 7,3.13401 7,7 z"
         fill-opacity="1"
         id="path4"
         sodipodi:nodetypes="sssss"
         style="fill:#ffffff;fill-opacity:1" />
      <path
         fill="none"
         stroke="rgb(0,0,0)"
         paint-order="fill stroke markers"
         d=" M 314.24999999999994 475.638888888889 C 314.24999999999994 479.50488213770456 311.11599324881547 482.638888888889 307.24999999999994 482.638888888889 C 303.3840067511844 482.638888888889 300.24999999999994 479.50488213770456 300.24999999999994 475.638888888889 C 300.24999999999994 471.7728956400735 303.3840067511844 468.638888888889 307.24999999999994 468.638888888889 C 311.11599324881547 468.638888888889 314.24999999999994 471.7728956400735 314.24999999999994 475.638888888889 Z"
         stroke-opacity="1"
         stroke-linecap="round"
         stroke-linejoin="round"
         stroke-miterlimit="10"
         id="path5"
         style="stroke:#ffffff;stroke-opacity:1" />
      <path
         fill="#000000"
         stroke="none"
         paint-order="stroke fill markers"
         d="m 236.69127,315.09076 c 0,3.86599 -3.134,7 -7,7 -3.86599,0 -7,-3.13401 -7,-7 0,-3.86599 3.13401,-7 7,-7 3.866,0 7,3.13401 7,7 z"
         fill-opacity="1"
         id="path6"
         sodipodi:nodetypes="sssss"
         style="fill:#ffffff;fill-opacity:1" />
      <path
         fill="none"
         stroke="rgb(0,0,0)"
         paint-order="fill stroke markers"
         d=" M 236.69127248170057 315.0907592038306 C 236.69127248170057 318.9567524526461 233.55726573051612 322.0907592038306 229.69127248170057 322.0907592038306 C 225.825279232885 322.0907592038306 222.69127248170057 318.9567524526461 222.69127248170057 315.0907592038306 C 222.69127248170057 311.2247659550151 225.825279232885 308.0907592038306 229.69127248170057 308.0907592038306 C 233.55726573051612 308.0907592038306 236.69127248170057 311.2247659550151 236.69127248170057 315.0907592038306 Z"
         stroke-opacity="1"
         stroke-linecap="round"
         stroke-linejoin="round"
         stroke-miterlimit="10"
         id="path7"
         style="stroke:#ffffff;stroke-opacity:1" />
      <path
         fill="rgb(0,0,0)"
         stroke="none"
         paint-order="stroke fill markers"
         d=" M 457.4702861819894 522.9943276058929 C 457.4702861819894 526.8603208547084 454.33627943080495 529.9943276058929 450.4702861819894 529.9943276058929 C 446.6042929331739 529.9943276058929 443.4702861819894 526.8603208547084 443.4702861819894 522.9943276058929 C 443.4702861819894 519.1283343570773 446.6042929331739 515.9943276058929 450.4702861819894 515.9943276058929 C 454.33627943080495 515.9943276058929 457.4702861819894 519.1283343570773 457.4702861819894 522.9943276058929 Z"
         fill-opacity="1"
         id="path8"
         style="fill:#ffffff;fill-opacity:1" />
      <path
         fill="none"
         stroke="#000000"
         paint-order="fill stroke markers"
         d="m 457.47029,522.99433 c 0,3.86599 -3.13401,7 -7,7 -3.866,0 -7,-3.13401 -7,-7 0,-3.866 3.134,-7 7,-7 3.86599,0 7,3.134 7,7 z"
         stroke-opacity="1"
         stroke-linecap="round"
         stroke-linejoin="round"
         stroke-miterlimit="10"
         id="path9"
         sodipodi:nodetypes="sssss"
         style="stroke:#ffffff;stroke-opacity:1" />
    </g>
  </g>
  <path
     style="fill:#ffffff;fill-opacity:0;stroke:#ffffff;stroke-width:4.403;stroke-dasharray:none;stroke-opacity:1"
     d="m 227.88339,313.91166 c 0,0 116.8756,-118.77987 177.56618,-102.51788 60.69057,16.26199 -94.28349,260.8465 -94.28349,260.8465 0,0 214.15547,-248.01767 224.22261,-183.03887 10.06714,64.9788 -80.5371,234.28976 -80.5371,234.28976"
     id="path10"
     sodipodi:nodetypes="cscsc" />
</svg>
