<?xml version="1.0" encoding="UTF-8" standalone="no"?>
<svg
   version="1.1"
   width="166"
   height="36"
   id="svg10"
   sodipodi:docname="icon.svg"
   inkscape:version="1.4 (1:1.4+202410161351+e7c3feb100)"
   xmlns:inkscape="http://www.inkscape.org/namespaces/inkscape"
   xmlns:sodipodi="http://sodipodi.sourceforge.net/DTD/sodipodi-0.dtd"
   xmlns="http://www.w3.org/2000/svg"
   xmlns:svg="http://www.w3.org/2000/svg">
  <sodipodi:namedview
     id="namedview10"
     pagecolor="#4cfb4a"
     bordercolor="#000000"
     borderopacity="0.25"
     inkscape:showpageshadow="2"
     inkscape:pageopacity="0.0"
     inkscape:pagecheckerboard="0"
     inkscape:deskcolor="#d1d1d1"
     showgrid="false"
     inkscape:zoom="7.001567"
     inkscape:cx="42.204838"
     inkscape:cy="53.345201"
     inkscape:window-width="1854"
     inkscape:window-height="1123"
     inkscape:window-x="0"
     inkscape:window-y="0"
     inkscape:window-maximized="1"
     inkscape:current-layer="svg10" />
  <defs
     id="defs1">
    <clipPath
       id="sOsVuOVmbhuw">
      <path
         fill="none"
         stroke="none"
         d="M 0,0 H 1089 V 777 H 0 Z"
         id="path1" />
    </clipPath>
  </defs>
  <path
     style="display:inline;fill:#ffffff;fill-opacity:0;stroke:#ffffff;stroke-width:0.738164;stroke-dasharray:none;stroke-opacity:1"
     d="m 0.87877393,17.780599 c 0,0 9.58593907,-9.7421222 14.56368907,-8.4083412 4.977731,1.3337792 -7.7329811,21.3941812 -7.7329811,21.3941812 0,0 17.5646811,-20.341992 18.3903721,-15.012533 0.82569,5.329451 -6.605521,19.216043 -6.605521,19.216043"
     id="path10"
     sodipodi:nodetypes="cscsc" />
  <text
     xml:space="preserve"
     style="font-size:13.5922px;text-align:start;writing-mode:lr-tb;direction:ltr;text-anchor:start;display:inline;fill:#ffffff;fill-opacity:0;stroke:#000000;stroke-width:0;stroke-dasharray:none;stroke-opacity:1"
     x="40.490433"
     y="27.723097"
     id="text10"
     transform="scale(0.89022279,1.1233143)"><tspan
       sodipodi:role="line"
       id="tspan10"
       x="40.490433"
       y="27.723097"
       style="font-style:normal;font-variant:normal;font-weight:normal;font-stretch:normal;font-size:13.5922px;font-family:'Nimbus Roman';-inkscape-font-specification:'Nimbus Roman, ';fill:#ffffff;fill-opacity:1;stroke-width:0;stroke-dasharray:none">RAI</tspan></text>
  <g
     clip-path="url(#sOsVuOVmbhuw)"
     id="g10"
     inkscape:export-filename="g10.png"
     inkscape:export-xdpi="54.709999"
     inkscape:export-ydpi="54.709999"
     transform="matrix(0.08201829,0,0,0.08201829,-17.811847,-7.9659053)">
    <g
       id="g9">
      <path
         fill="none"
         stroke="rgb(0,0,0)"
         paint-order="fill stroke markers"
         d="m 229.69127,315.09076 c 0.79931,57.15036 24.74074,111.53355 66.35121,150.71737 41.61047,39.18382 97.33249,59.81825 154.42781,57.1862"
         stroke-opacity="0.6980392156862745"
         stroke-linecap="round"
         stroke-linejoin="round"
         stroke-miterlimit="10"
         stroke-width="3"
         id="path3"
         style="display:inline;stroke:#ffffff;stroke-width:10;stroke-dasharray:none;stroke-opacity:1" />
      <path
         fill="none"
         stroke="rgb(96,96,96)"
         paint-order="fill stroke markers"
         d="m 651.82937,312.13889 c 0,116.57592 -94.50345,211.07937 -211.07937,211.07937 -116.57592,0 -211.07937,-94.50345 -211.07937,-211.07937 0,-116.57592 94.50345,-211.07937 211.07937,-211.07937 116.57592,0 211.07937,94.50345 211.07937,211.07937 z"
         stroke-opacity="0.6980392156862745"
         stroke-linejoin="round"
         stroke-miterlimit="10"
         stroke-width="2"
         stroke-dasharray="6,4"
         id="path2"
         style="display:inline;stroke:#ffffff;stroke-width:8;stroke-dasharray:24, 16;stroke-dashoffset:0;stroke-opacity:0.698039" />
      <path
         fill="#000000"
         stroke="none"
         paint-order="stroke fill markers"
         d="m 319.12236,477.08899 c 0,6.62742 -5.37258,12 -12,12 -6.62742,0 -12,-5.37258 -12,-12 0,-6.62742 5.37258,-12 12,-12 6.62742,0 12,5.37258 12,12 z"
         fill-opacity="1"
         id="path4"
         sodipodi:nodetypes="sssss"
         style="fill:#ffffff;fill-opacity:1;stroke-width:1.71429" />
      <path
         fill="#000000"
         stroke="none"
         paint-order="stroke fill markers"
         d="m 241.1692,313.38539 c 0,6.62741 -5.37257,12 -12,12 -6.62741,0 -12,-5.37259 -12,-12 0,-6.62741 5.37259,-12 12,-12 6.62743,0 12,5.37259 12,12 z"
         fill-opacity="1"
         id="path6"
         sodipodi:nodetypes="sssss"
         style="fill:#ffffff;fill-opacity:1;stroke-width:1.71429" />
      <path
         fill="rgb(0,0,0)"
         stroke="none"
         paint-order="stroke fill markers"
         d="m 464.31482,524.04999 c 0,6.62741 -5.37259,12 -12,12 -6.62742,0 -12,-5.37259 -12,-12 0,-6.62742 5.37258,-12 12,-12 6.62741,0 12,5.37258 12,12 z"
         fill-opacity="1"
         id="path8"
         style="fill:#ffffff;fill-opacity:1;stroke-width:1.71429" />
    </g>
  </g>
</svg>
